<svg width="31.38" height="20" xmlns="http://www.w3.org/2000/svg">
    <title>eye</title>
    <g>
      <title>Layer 1</title>
      <g id="_16">
        <path
          id="svg_1"
          fill="#343434"
          d="m15.69,20a13.93,13.93 0 0 1 -6.13,-1.54a23,23 0 0 1 -4.94,-3.34a31,31 0 0 1 -4.53,-4.84a0.48,0.48 0 0 1 0,-0.56a31,31 0 0 1 4.53,-4.84a23,23 0 0 1 4.94,-3.34a13.93,13.93 0 0 1 6.13,-1.54a14,14 0 0 1 6.14,1.54a23.2,23.2 0 0 1 4.93,3.34a30.44,30.44 0 0 1 4.53,4.84a0.48,0.48 0 0 1 0,0.56a30.44,30.44 0 0 1 -4.53,4.84a23.2,23.2 0 0 1 -4.93,3.34a14,14 0 0 1 -6.14,1.54zm-14.6,-10a31.37,31.37 0 0 0 4.18,4.41c2.45,2.11 6.24,4.62 10.42,4.62s8,-2.51 10.42,-4.62a32.29,32.29 0 0 0 4.19,-4.41a32.29,32.29 0 0 0 -4.19,-4.38c-2.44,-2.11 -6.23,-4.62 -10.42,-4.62s-8,2.52 -10.43,4.64a30.75,30.75 0 0 0 -4.17,4.36z"
        />
        <path
          id="svg_2"
          fill="#343434"
          d="m15.69,16.62a6.57,6.57 0 1 1 6.57,-6.57a6.58,6.58 0 0 1 -6.57,6.57zm0,-12.17a5.6,5.6 0 1 0 5.6,5.6a5.6,5.6 0 0 0 -5.6,-5.65l0,0.05z"
        />
        <path
          id="svg_3"
          fill="#343434"
          d="m15.69,12.62a2.64,2.64 0 1 1 2.64,-2.64a2.64,2.64 0 0 1 -2.64,2.64zm0,-4.31a1.67,1.67 0 1 0 1.67,1.67a1.67,1.67 0 0 0 -1.67,-1.65l0,-0.02z"
        />
      </g>
      <line
        stroke-linecap="undefined"
        stroke-linejoin="undefined"
        id="svg_4"
        y2="1.54971"
        x2="27.57522"
        y1="18.27099"
        x1="4.95231"
        stroke-width="1.5"
        stroke="#343434"
        fill="none"
      />
    </g>
  </svg>